<svg xmlns="http://www.w3.org/2000/svg" viewBox="0 0 54 54"><title>aftereffects</title><g data-name="Layer 2"><g data-name="Adobe icons"><path d="M50.17 54H3.83A3.84 3.84 0 0 1 0 50.16V3.83A3.84 3.84 0 0 1 3.83 0h46.34A3.84 3.84 0 0 1 54 3.83v46.33A3.84 3.84 0 0 1 50.17 54zM3.83 2A1.83 1.83 0 0 0 2 3.83v46.33A1.83 1.83 0 0 0 3.83 52h46.34A1.83 1.83 0 0 0 52 50.16V3.83A1.83 1.83 0 0 0 50.17 2z"/><path d="M16.14 32.44l-1.44 5.19H10l6.18-20.22h6l6.27 20.22h-4.96l-1.56-5.19zM21.27 29L20 24.73c-.36-1.2-.72-2.7-1-3.9h-.06c-.3 1.2-.6 2.73-.93 3.9L16.8 29zM34.05 31.75c.15 1.89 2 2.79 4.14 2.79a12.92 12.92 0 0 0 4.05-.6l.6 3.09a14.48 14.48 0 0 1-5.31.9c-5 0-7.83-2.88-7.83-7.47 0-3.72 2.31-7.83 7.41-7.83 4.74 0 6.54 3.69 6.54 7.32a10.83 10.83 0 0 1-.15 1.8zm5.37-3.12c0-1.11-.48-3-2.58-3a3 3 0 0 0-2.82 3z"/></g></g></svg>