<svg xmlns="http://www.w3.org/2000/svg" viewBox="0 0 54 54"><title>cinematography</title><g id="Layer_2" data-name="Layer 2"><g id="Adobe_icons" data-name="Adobe icons"><path d="M50.17,54H3.83A3.84,3.84,0,0,1,0,50.17V3.83A3.84,3.84,0,0,1,3.83,0H50.17A3.84,3.84,0,0,1,54,3.83V50.17A3.84,3.84,0,0,1,50.17,54ZM3.83,2A1.83,1.83,0,0,0,2,3.83V50.17A1.83,1.83,0,0,0,3.83,52H50.17A1.83,1.83,0,0,0,52,50.17V3.83A1.83,1.83,0,0,0,50.17,2Z"/><path d="M16.59,23a3.74,3.74,0,0,0,3.81-3.81,3.81,3.81,0,0,0-3.81-3.8,3.9,3.9,0,0,0-3.8,3.8A3.82,3.82,0,0,0,16.59,23Z"/><path d="M27.89,23a4.76,4.76,0,0,0,4.7-4.69,4.7,4.7,0,0,0-9.4,0A4.76,4.76,0,0,0,27.89,23Z"/><path d="M32.84,23.74H12.91a2,2,0,0,0-2,2v9.88a2,2,0,0,0,2,1.9H32.84a2,2,0,0,0,1.91-1.9V25.77A2,2,0,0,0,32.84,23.74Z"/><path d="M41.73,21.71,37.15,25a4.45,4.45,0,0,0-1.52,3.05v5.7a3.7,3.7,0,0,0,1.52,2.91l4.58,3.43c.75.64,1.39.26,1.39-.75V22.47C43.12,21.46,42.48,21.07,41.73,21.71Z"/></g></g></svg>