<svg xmlns="http://www.w3.org/2000/svg" viewBox="0 0 54 54"><defs><style>.cls-1{fill-rule:evenodd;}</style></defs><title>photography</title><g id="Layer_2" data-name="Layer 2"><g id="Adobe_icons" data-name="Adobe icons"><path d="M50.17,54H3.83A3.84,3.84,0,0,1,0,50.17V3.83A3.84,3.84,0,0,1,3.83,0H50.17A3.84,3.84,0,0,1,54,3.83V50.17A3.84,3.84,0,0,1,50.17,54ZM3.83,2A1.83,1.83,0,0,0,2,3.83V50.17A1.83,1.83,0,0,0,3.83,52H50.17A1.83,1.83,0,0,0,52,50.17V3.83A1.83,1.83,0,0,0,50.17,2Z"/><path class="cls-1" d="M13,20.88h4.76v2.37H13Zm17.41,4.49a6.32,6.32,0,0,0-1.51-1.12A5,5,0,0,0,27,23.87a4.15,4.15,0,0,0-1.87.38,4.92,4.92,0,0,0-1.62,1.12,3.2,3.2,0,0,0-1,1.5,5.09,5.09,0,0,0,0,3.76,4.31,4.31,0,0,0,1,1.63,7,7,0,0,0,1.62,1,4.15,4.15,0,0,0,1.87.38,5,5,0,0,0,1.88-.38,10.53,10.53,0,0,0,1.51-1,4.58,4.58,0,0,0,1.12-1.63,4.84,4.84,0,0,0,0-3.76,3.38,3.38,0,0,0-1.12-1.5ZM27,21.49a7.19,7.19,0,0,1,2.75.63h0A7.05,7.05,0,0,1,32,23.63,7.3,7.3,0,0,1,33.63,26h0a6.63,6.63,0,0,1,.5,2.75,6.63,6.63,0,0,1-.5,2.75h0A6.18,6.18,0,0,1,32,33.88h0a7.22,7.22,0,0,1-2.26,1.51h0A7.36,7.36,0,0,1,27,36a7.46,7.46,0,0,1-2.87-.62h0a8.93,8.93,0,0,1-2.26-1.51h0a6.18,6.18,0,0,1-1.63-2.38h0a10.08,10.08,0,0,1-.5-2.75,10.08,10.08,0,0,1,.5-2.75h0a7.3,7.3,0,0,1,1.63-2.37h0a8.67,8.67,0,0,1,2.26-1.51h0A7.29,7.29,0,0,1,27,21.49ZM12.85,18.87a1.87,1.87,0,0,0-1.76,2V36.76A1.93,1.93,0,0,0,13,38.63H40.89a2.06,2.06,0,0,0,2-1.87V20.88a2,2,0,0,0-1.9-2h-.36l-.51-2.24a1.44,1.44,0,0,0-1.38-1.26H29.24a1.49,1.49,0,0,0-1.49,1.26l-.38,2.24H12.85Z"/></g></g></svg>