<svg xmlns="http://www.w3.org/2000/svg" viewBox="0 0 54 54"><title>photoshop</title><g data-name="Layer 2"><g data-name="Adobe icons"><path d="M50.17 54H3.83A3.84 3.84 0 0 1 0 50.16V3.83A3.84 3.84 0 0 1 3.83 0h46.34A3.84 3.84 0 0 1 54 3.83v46.33A3.84 3.84 0 0 1 50.17 54zM3.83 2A1.83 1.83 0 0 0 2 3.83v46.33A1.83 1.83 0 0 0 3.83 52h46.34A1.83 1.83 0 0 0 52 50.16V3.83A1.83 1.83 0 0 0 50.17 2z"/><path d="M14.07 17.68a37.43 37.43 0 0 1 6.18-.42c2.82 0 4.83.54 6.18 1.62a5.91 5.91 0 0 1 2.16 4.68 6.46 6.46 0 0 1-1.86 4.8 9.37 9.37 0 0 1-6.57 2.13 11.51 11.51 0 0 1-1.56-.09v7.23h-4.53zm4.53 9.18a7 7 0 0 0 1.53.12c2.43 0 3.93-1.23 3.93-3.3 0-1.86-1.29-3-3.57-3a7.79 7.79 0 0 0-1.89.18zM30.69 33.64a8.91 8.91 0 0 0 3.93 1.11c1.38 0 2-.48 2-1.23s-.45-1.11-2.16-1.68c-3-1-4.2-2.67-4.17-4.41 0-2.73 2.34-4.8 6-4.8a9.84 9.84 0 0 1 4.14.84l-.81 3.15a7.2 7.2 0 0 0-3.18-.84c-1.11 0-1.74.45-1.74 1.2s.49 1.02 2.3 1.68c2.79 1 4 2.37 4 4.53 0 2.73-2.16 4.74-6.36 4.74a10.39 10.39 0 0 1-4.74-1z"/></g></g></svg>