<svg xmlns="http://www.w3.org/2000/svg" viewBox="0 0 54 54"><title>premiere</title><g data-name="Layer 2"><g data-name="Adobe icons"><path d="M50.17 54H3.83A3.84 3.84 0 0 1 0 50.16V3.83A3.84 3.84 0 0 1 3.83 0h46.34A3.84 3.84 0 0 1 54 3.83v46.33A3.84 3.84 0 0 1 50.17 54zM3.83 2A1.83 1.83 0 0 0 2 3.83v46.33A1.83 1.83 0 0 0 3.83 52h46.34A1.83 1.83 0 0 0 52 50.16V3.83A1.83 1.83 0 0 0 50.17 2z"/><path d="M14.7 17.68a37.43 37.43 0 0 1 6.18-.42c2.82 0 4.83.54 6.18 1.62a5.91 5.91 0 0 1 2.16 4.68 6.46 6.46 0 0 1-1.86 4.8 9.37 9.37 0 0 1-6.57 2.13 11.51 11.51 0 0 1-1.56-.09v7.23H14.7zm4.53 9.18a7 7 0 0 0 1.53.12c2.43 0 3.93-1.23 3.93-3.3 0-1.86-1.29-3-3.57-3a7.79 7.79 0 0 0-1.89.18zM31.71 27.79c0-2.16-.06-3.57-.12-4.83h3.93l.15 2.7h.12a4.31 4.31 0 0 1 4-3 4.7 4.7 0 0 1 1 .06V27a6.54 6.54 0 0 0-1.23-.12 2.93 2.93 0 0 0-3.12 2.31 5.38 5.38 0 0 0-.09 1v7.44h-4.64z"/></g></g></svg>