<svg xmlns="http://www.w3.org/2000/svg" viewBox="0 0 54 54"><title>webdesign</title><g id="Layer_2" data-name="Layer 2"><g id="Adobe_icons" data-name="Adobe icons"><path d="M50.17,54H3.83A3.84,3.84,0,0,1,0,50.17V3.83A3.84,3.84,0,0,1,3.83,0H50.17A3.84,3.84,0,0,1,54,3.83V50.17A3.84,3.84,0,0,1,50.17,54ZM3.83,2A1.83,1.83,0,0,0,2,3.83V50.17A1.83,1.83,0,0,0,3.83,52H50.17A1.83,1.83,0,0,0,52,50.17V3.83A1.83,1.83,0,0,0,50.17,2Z"/><path d="M15.67,23.13l-7.25,3.7,7.31,4.11v1.57L6.82,27.32v-1l8.85-4.66Z"/><path d="M24.43,19.61l1.24.63L19.11,34.39l-1.23-.62Z"/><path d="M32.3,23.74a3.69,3.69,0,0,1,3.32,1.59,4.09,4.09,0,0,1,.47,2.26V33.5H34.66v-1a5.46,5.46,0,0,1-3.43,1.28A2.91,2.91,0,0,1,28,31a3,3,0,0,1,2.19-2.72,12.35,12.35,0,0,1,4.13-.44h.3v-.34a3,3,0,0,0-.31-1.64,2.12,2.12,0,0,0-2-.92A3.73,3.73,0,0,0,29.63,26l-.74-1A4.65,4.65,0,0,1,32.3,23.74ZM34.35,29a15.94,15.94,0,0,0-3.13.14,1.91,1.91,0,0,0-1.69,1.76,1.8,1.8,0,0,0,2,1.66,3.6,3.6,0,0,0,2.51-1.13,2.32,2.32,0,0,0,.65-1.8V29Z"/><path d="M38.33,21.65l8.85,4.66v1l-8.91,5.19V30.94l7.31-4.11-7.25-3.7Z"/></g></g></svg>