<svg xmlns="http://www.w3.org/2000/svg" viewBox="0 0 54 54"><title>webdesign</title><g data-name="Layer 2"><g data-name="Adobe icons"><path d="M50.17 54H3.83A3.84 3.84 0 0 1 0 50.17V3.83A3.84 3.84 0 0 1 3.83 0h46.34A3.84 3.84 0 0 1 54 3.83v46.34A3.84 3.84 0 0 1 50.17 54zM3.83 2A1.83 1.83 0 0 0 2 3.83v46.34A1.83 1.83 0 0 0 3.83 52h46.34A1.83 1.83 0 0 0 52 50.17V3.83A1.83 1.83 0 0 0 50.17 2z"/><path d="M15.67 23.13l-7.25 3.7 7.31 4.11v1.57l-8.91-5.19v-1l8.85-4.66zM24.43 19.61l1.24.63-6.56 14.15-1.23-.62zM32.3 23.74a3.69 3.69 0 0 1 3.32 1.59 4.09 4.09 0 0 1 .47 2.26v5.91h-1.43v-1a5.46 5.46 0 0 1-3.43 1.28A2.91 2.91 0 0 1 28 31a3 3 0 0 1 2.19-2.72 12.35 12.35 0 0 1 4.13-.44h.3v-.34a3 3 0 0 0-.31-1.64 2.12 2.12 0 0 0-2-.92A3.73 3.73 0 0 0 29.63 26l-.74-1a4.65 4.65 0 0 1 3.41-1.26zM34.35 29a15.94 15.94 0 0 0-3.13.14 1.91 1.91 0 0 0-1.69 1.76 1.8 1.8 0 0 0 2 1.66 3.6 3.6 0 0 0 2.51-1.13 2.32 2.32 0 0 0 .65-1.8V29zM38.33 21.65l8.85 4.66v1l-8.91 5.19v-1.56l7.31-4.11-7.25-3.7z"/></g></g></svg>