<svg id="Layer_1" xmlns="http://www.w3.org/2000/svg" viewBox="0 0 544.5 586.9"><style>.st0{display:none}.st1{display:inline}.st2{fill:#fff}.st3{fill:none;stroke:#000;stroke-miterlimit:10}</style><g id="Layer_1_1_" class="st0"><g class="st1"><circle class="st2" cx="272.2" cy="299.7" r="145.5"/><path d="M272.2 161.7c76.2 0 138 61.8 138 138s-61.8 138-138 138-138-61.8-138-138 61.8-138 138-138m0-15c-40.9 0-79.3 15.9-108.2 44.8s-44.8 67.3-44.8 108.2S135.1 379 164 407.9c28.9 28.9 67.3 44.8 108.2 44.8s79.3-15.9 108.2-44.8c28.9-28.9 44.8-67.3 44.8-108.2s-15.9-79.3-44.8-108.2c-28.9-28.9-67.3-44.8-108.2-44.8z"/></g><g class="st1"><circle class="st2" cx="272.2" cy="300.7" r="125.5"/><path d="M272.2 175.7c33.4 0 64.8 13 88.4 36.6s36.6 55 36.6 88.4-13 64.8-36.6 88.4-55 36.6-88.4 36.6-64.8-13-88.4-36.6-36.6-55-36.6-88.4 13-64.8 36.6-88.4c23.7-23.6 55.1-36.6 88.4-36.6m0-1c-69.6 0-126 56.4-126 126s56.4 126 126 126 126-56.4 126-126-56.4-126-126-126z"/></g><g class="st1"><path class="st3" d="M196.2 224.7l151 151"/></g><g class="st1"><path class="st3" d="M196.2 375.7l151-151"/></g><path class="st1" d="M286.7 138.2l-3-5 3-5 3 5z"/></g><path class="st2" d="M430.8 126.8L492 65.6l6.4 6.4-61.2 61.2c-2.1-2.2-4.2-4.4-6.4-6.4zM46.1 71.9l61.2 61.2c2.1-2.2 4.2-4.3 6.4-6.4L52.4 65.5l-6.3 6.4zm61.2 378.4l-61.2 61.2 6.4 6.4 61.2-61.2c-2.2-2.1-4.3-4.2-6.4-6.4zm323.5 6.4l61.2 61.2 6.4-6.4-61.2-61.2c-2.1 2.2-4.2 4.3-6.4 6.4zM249.3 199.2c0 13.7 7.4 31.1 22.1 41.3-44.7-3.3-122.7 18.5-122.7 120.2 0 15.9 0 89.5 95.4 89.5 63.9.3 90.8-37 90.8-38.9 0-2.6-4.3-3.5-6.2-1.6-6.2 6.2-31.5 32.1-67.8 32.1-83.1 0-88.2-192.7 38.9-192.7-42.5-42.5-15.9-103.8 41.5-103.8 9.4 0 24.7 4.2 24.7 17.5 0 1.3 3.2 2.6 5.2 2.6.6 0 1 0 1-2.3 0-43.1-122.9-54.8-122.9 36.1zM200.1 50.3l-7.3 2.3.4 1.2 7.3-2.3-.4-1.2zm21.5 8.2l-.3-1.3-8 1.9-2.5-10.3 6.8-1.6-.3-1.3-6.8 1.6-2.4-10 7.9-1.9-.3-1.3-9.3 2.2 5.8 24.3 9.4-2.3zm14.1-24l3.5 20.9 1.4-.2-4.1-24.6-1.5.2-3.7 18.8-9.4-16.6-1.4.2 4.1 24.6 1.3-.2-3.5-20.9 9 15.6.8-.1 3.5-17.7zm10.8 20.1l-2.7-24.8-1.4.2 2.7 24.8 1.4-.2zm13.6-2.5l-7.6.6-1.7-23.5-1.4.1 1.8 24.9 9.1-.7-.2-1.4zm6.7-.2h-.8v1.4h.9c3.8-.1 5.6-1.8 5.5-5.4l-.3-19.7h-1.4l.3 19c.1 3.3-1.1 4.7-4.2 4.7zm19.9 1.7l1.5.1-4.9-25.2-1.5-.1-6.7 24.7 1.4.1 1.8-6.6 7.2.3 1.2 6.7zm-8.1-8.3l3.8-14.2 2.7 14.5-6.5-.3zm13.7 8.7l2.2-21.4 6.7 22.3 1.4.1 2.5-24.8-1.4-.1-2.2 21.4-6.6-22.3-1.5-.2-2.5 24.8 1.4.2zm27.3-12.8l.6-3.7c.5-3.3-1.1-5.4-4.5-5.9h-.1c-3.4-.6-5.6.9-6.2 4.2l-.5 2.8c-.3 1.8.3 2.9 2.1 4.3l3.5 2.8c1.9 1.5 2.6 2.2 2.2 4.2l-.3 2c-.5 2.9-1.7 4.2-4.7 3.7s-3.8-2.1-3.3-5l.6-3.4-1.4-.2-.7 3.9c-.6 3.5.8 5.4 4.5 6h.1c3.7.6 5.7-.8 6.2-4.2l.5-3.1c.3-1.7-.7-3.3-2.1-4.4l-3.6-2.8c-1.8-1.4-2.5-2-2.1-4l.3-1.7c.5-3 1.7-4.1 4.7-3.6s3.8 2 3.3 4.9l-.5 3.1 1.4.1zm14.8 3.2l.8-3.6c.7-3.3-.8-5.4-4.1-6.2h-.1c-3.3-.8-5.7.5-6.4 3.8l-.6 2.7c-.4 1.8.1 2.9 1.8 4.4l3.3 3c1.8 1.6 2.4 2.4 2 4.3l-.4 1.9c-.7 2.9-2 4.1-4.9 3.4-3-.7-3.6-2.3-3-5.2l.8-3.3-1.4-.3-.9 3.9c-.8 3.4.5 5.4 4.2 6.3h.1c3.7.8 5.7-.5 6.5-3.9l.7-3.1c.4-1.6-.5-3.3-1.8-4.5l-3.4-3c-1.7-1.5-2.3-2.1-1.9-4.1l.4-1.7c.7-2.9 2-4 4.9-3.3s3.6 2.2 3 5.1l-.7 3.1 1.1.3zm5.5-2.3l-4.2 14.4c-1 3.3.2 5.6 3.8 6.6l.3.1c3.6 1.1 5.9-.2 6.8-3.5l4.2-14.4c1-3.3-.2-5.6-3.8-6.6l-.3-.1c-3.6-1-5.9.2-6.8 3.5zm-2.7 14.2l3.9-13.1c.9-3.1 2.4-4.1 5.4-3.2 3 .9 3.7 2.5 2.8 5.6l-3.9 13.1c-.9 3.1-2.4 4.1-5.4 3.2s-3.7-2.5-2.8-5.6zm13.1 9.9l7.4-20.2.9 23.2 1.3.5 8.6-23.4-1.3-.5-7.4 20.2-.8-23.1-1.4-.5-8.6 23.4 1.3.4zm30-2.2l-7-3.2-.5 1.2 7 3.2.5-1.2zM204.7 532.5l-7.4-2.2-.4 1.2 7.4 2.2.4-1.2zm16.9-7.7l-5.6-1.2-5.3 24.4 1.4.3 2.3-10.4 4.2.9c3.7.8 5.8-.6 6.6-4l.8-3.7c.7-3.3-.7-5.5-4.4-6.3zm2.3 9.1c-.7 3.1-2.1 4.2-5.2 3.5l-4.1-.9 2.5-11.3 4.1.9c3.1.7 3.9 2.2 3.2 5.4l-.5 2.4zm5.5-2.4l-2.3 14.8c-.5 3.4 1 5.5 4.7 6.1h.3c3.7.6 5.8-1 6.3-4.4l2.3-14.8c.5-3.4-1-5.5-4.7-6.1h-.3c-3.8-.5-5.8 1-6.3 4.4zm-.8 14.4l2.1-13.5c.5-3.2 1.8-4.3 4.9-3.9 3.1.5 4 2 3.5 5.2l-2.1 13.5c-.5 3.2-1.8 4.3-4.9 3.9-3.1-.5-4-2.1-3.5-5.2zm26.7 8.8l-3.4-11.5c2.5-.4 3.8-2 4-4.7l.3-3.4c.3-3.4-1.3-5.4-5.1-5.7l-5.7-.5-2.2 24.9 1.4.1 1-10.9 4.3.4h.5l3.4 11.3h1.5zm-5.4-12.8l-4.2-.4 1-11.3 4.2.4c3.1.3 4.1 1.7 3.9 4.9l-.2 2.2c-.3 3.2-1.6 4.4-4.7 4.2zm19.9-11.6l-11-.4v1.4l4.8.2-.8 23.6h1.4l.8-23.6 4.8.2v-1.4zm3 24.9h1.4l-.2-11.8 6.8-.1v-1.4l-6.8.1-.2-10.4 7.9-.1v-1.4l-9.4.2.5 24.9zm11.8-20.3l1.1 14.9c.2 3.4 2.2 5.1 5.9 4.9h.3c3.8-.3 5.4-2.3 5.2-5.7l-1.1-14.9c-.2-3.4-2.2-5.1-5.9-4.9h-.3c-3.8.4-5.5 2.3-5.2 5.7zm2.4 14.2l-1-13.7c-.2-3.2.8-4.6 3.9-4.9 3.1-.2 4.4 1 4.6 4.2l1 13.7c.2 3.2-.8 4.6-3.9 4.9-3.1.3-4.3-1-4.6-4.2zm24.8 1.8l-7.6 1-3.1-23.4-1.4.2 3.2 24.7 9-1.2-.1-1.3zm5.4.4l-4.2-24.6-1.4.2 4.2 24.6 1.4-.2zm1.3-20.4l3.2 14.6c.7 3.3 2.9 4.8 6.5 4l.3-.1c3.7-.8 5-3 4.3-6.3l-3.2-14.6c-.7-3.3-2.9-4.8-6.5-4l-.3.1c-3.7.7-5.1 2.9-4.3 6.3zm4.4 13.7l-2.9-13.4c-.7-3.1.1-4.7 3.2-5.4s4.5.4 5.1 3.6l2.9 13.4c.7 3.1-.2 4.7-3.2 5.4-3 .6-4.4-.5-5.1-3.6zm24.2-14.2l-7.4 2.2.4 1.2 7.4-2.2-.4-1.2z" id="Layer_3"/></svg>