<?xml version="1.0" encoding="utf-8"?>
<!-- Generator: Adobe Illustrator 22.0.1, SVG Export Plug-In . SVG Version: 6.00 Build 0)  -->
<svg version="1.1" id="Layer_1" xmlns="http://www.w3.org/2000/svg" xmlns:xlink="http://www.w3.org/1999/xlink" x="0px" y="0px"
	 viewBox="0 0 544.5 586.9" style="enable-background:new 0 0 544.5 586.9;" xml:space="preserve">
<style type="text/css">
	.st0{display:none;}
	.st1{display:inline;}
	.st2{fill:#FFFFFF;}
	.st3{fill:none;stroke:#000000;stroke-miterlimit:10;}
</style>
<g id="Layer_1_1_" class="st0">
	<g class="st1">
		<circle class="st2" cx="272.2" cy="299.7" r="145.5"/>
		<path d="M272.2,161.7c76.2,0,138,61.8,138,138s-61.8,138-138,138s-138-61.8-138-138S196,161.7,272.2,161.7 M272.2,146.7
			c-40.9,0-79.3,15.9-108.2,44.8s-44.8,67.3-44.8,108.2S135.1,379,164,407.9c28.9,28.9,67.3,44.8,108.2,44.8s79.3-15.9,108.2-44.8
			c28.9-28.9,44.8-67.3,44.8-108.2s-15.9-79.3-44.8-108.2C351.5,162.6,313.1,146.7,272.2,146.7L272.2,146.7z"/>
	</g>
	<g class="st1">
		<circle class="st2" cx="272.2" cy="300.7" r="125.5"/>
		<path d="M272.2,175.7c33.4,0,64.8,13,88.4,36.6s36.6,55,36.6,88.4s-13,64.8-36.6,88.4s-55,36.6-88.4,36.6s-64.8-13-88.4-36.6
			s-36.6-55-36.6-88.4s13-64.8,36.6-88.4C207.5,188.7,238.9,175.7,272.2,175.7 M272.2,174.7c-69.6,0-126,56.4-126,126
			s56.4,126,126,126s126-56.4,126-126S341.8,174.7,272.2,174.7L272.2,174.7z"/>
	</g>
	<g class="st1">
		<line class="st3" x1="196.2" y1="224.7" x2="347.2" y2="375.7"/>
	</g>
	<g class="st1">
		<line class="st3" x1="196.2" y1="375.7" x2="347.2" y2="224.7"/>
	</g>
	<polygon class="st1" points="286.7,138.2 283.7,133.2 286.7,128.2 289.7,133.2 	"/>
</g>
<g id="Layer_3">
	<path class="st2" d="M430.8,126.8L492,65.6l6.4,6.4l-61.2,61.2C435.1,131,433,128.8,430.8,126.8z M46.1,71.9l61.2,61.2
		c2.1-2.2,4.2-4.3,6.4-6.4L52.4,65.5L46.1,71.9z M107.3,450.3l-61.2,61.2l6.4,6.4l61.2-61.2C111.5,454.6,109.4,452.5,107.3,450.3z
		 M430.8,456.7l61.2,61.2l6.4-6.4l-61.2-61.2C435.1,452.5,433,454.6,430.8,456.7z M249.3,199.2c0,13.7,7.4,31.1,22.1,41.3
		c-44.7-3.3-122.7,18.5-122.7,120.2c0,15.9,0,89.5,95.4,89.5c63.9,0.3,90.8-37,90.8-38.9c0-2.6-4.3-3.5-6.2-1.6
		c-6.2,6.2-31.5,32.1-67.8,32.1c-83.1,0-88.2-192.7,38.9-192.7c-42.5-42.5-15.9-103.8,41.5-103.8c9.4,0,24.7,4.2,24.7,17.5
		c0,1.3,3.2,2.6,5.2,2.6c0.6,0,1,0,1-2.3C372.2,120,249.3,108.3,249.3,199.2z M200.1,50.3l-7.3,2.3l0.4,1.2l7.3-2.3L200.1,50.3z
		 M221.6,58.5l-0.3-1.3l-8,1.9l-2.5-10.3l6.8-1.6l-0.3-1.3l-6.8,1.6l-2.4-10l7.9-1.9l-0.3-1.3l-9.3,2.2l5.8,24.3L221.6,58.5z
		 M235.7,34.5l3.5,20.9l1.4-0.2l-4.1-24.6l-1.5,0.2l-3.7,18.8L221.9,33l-1.4,0.2l4.1,24.6l1.3-0.2l-3.5-20.9l9,15.6l0.8-0.1
		L235.7,34.5z M246.5,54.6l-2.7-24.8l-1.4,0.2l2.7,24.8L246.5,54.6z M260.1,52.1l-7.6,0.6l-1.7-23.5l-1.4,0.1l1.8,24.9l9.1-0.7
		L260.1,52.1z M266.8,51.9H266v1.4h0.9c3.8-0.1,5.6-1.8,5.5-5.4l-0.3-19.7h-1.4l0.3,19C271.1,50.5,269.9,51.9,266.8,51.9z
		 M286.7,53.6l1.5,0.1l-4.9-25.2l-1.5-0.1l-6.7,24.7l1.4,0.1l1.8-6.6l7.2,0.3L286.7,53.6z M278.6,45.3l3.8-14.2l2.7,14.5L278.6,45.3
		z M292.3,54l2.2-21.4l6.7,22.3l1.4,0.1l2.5-24.8l-1.4-0.1l-2.2,21.4l-6.6-22.3l-1.5-0.2l-2.5,24.8L292.3,54z M319.6,41.2l0.6-3.7
		c0.5-3.3-1.1-5.4-4.5-5.9h-0.1c-3.4-0.6-5.6,0.9-6.2,4.2l-0.5,2.8c-0.3,1.8,0.3,2.9,2.1,4.3l3.5,2.8c1.9,1.5,2.6,2.2,2.2,4.2
		l-0.3,2c-0.5,2.9-1.7,4.2-4.7,3.7s-3.8-2.1-3.3-5l0.6-3.4l-1.4-0.2l-0.7,3.9c-0.6,3.5,0.8,5.4,4.5,6h0.1c3.7,0.6,5.7-0.8,6.2-4.2
		l0.5-3.1c0.3-1.7-0.7-3.3-2.1-4.4l-3.6-2.8c-1.8-1.4-2.5-2-2.1-4l0.3-1.7c0.5-3,1.7-4.1,4.7-3.6s3.8,2,3.3,4.9l-0.5,3.1L319.6,41.2
		z M334.4,44.4l0.8-3.6c0.7-3.3-0.8-5.4-4.1-6.2H331c-3.3-0.8-5.7,0.5-6.4,3.8l-0.6,2.7c-0.4,1.8,0.1,2.9,1.8,4.4l3.3,3
		c1.8,1.6,2.4,2.4,2,4.3l-0.4,1.9c-0.7,2.9-2,4.1-4.9,3.4c-3-0.7-3.6-2.3-3-5.2l0.8-3.3l-1.4-0.3l-0.9,3.9c-0.8,3.4,0.5,5.4,4.2,6.3
		h0.1c3.7,0.8,5.7-0.5,6.5-3.9l0.7-3.1c0.4-1.6-0.5-3.3-1.8-4.5l-3.4-3c-1.7-1.5-2.3-2.1-1.9-4.1l0.4-1.7c0.7-2.9,2-4,4.9-3.3
		s3.6,2.2,3,5.1l-0.7,3.1L334.4,44.4z M339.9,42.1l-4.2,14.4c-1,3.3,0.2,5.6,3.8,6.6l0.3,0.1c3.6,1.1,5.9-0.2,6.8-3.5l4.2-14.4
		c1-3.3-0.2-5.6-3.8-6.6l-0.3-0.1C343.1,37.6,340.8,38.8,339.9,42.1z M337.2,56.3l3.9-13.1c0.9-3.1,2.4-4.1,5.4-3.2
		c3,0.9,3.7,2.5,2.8,5.6l-3.9,13.1c-0.9,3.1-2.4,4.1-5.4,3.2S336.3,59.4,337.2,56.3z M350.3,66.2l7.4-20.2l0.9,23.2l1.3,0.5
		l8.6-23.4l-1.3-0.5L359.8,66L359,42.9l-1.4-0.5L349,65.8L350.3,66.2z M380.3,64l-7-3.2l-0.5,1.2l7,3.2L380.3,64z M204.7,532.5
		l-7.4-2.2l-0.4,1.2l7.4,2.2L204.7,532.5z M221.6,524.8l-5.6-1.2l-5.3,24.4l1.4,0.3l2.3-10.4l4.2,0.9c3.7,0.8,5.8-0.6,6.6-4l0.8-3.7
		C226.7,527.8,225.3,525.6,221.6,524.8z M223.9,533.9c-0.7,3.1-2.1,4.2-5.2,3.5l-4.1-0.9l2.5-11.3l4.1,0.9c3.1,0.7,3.9,2.2,3.2,5.4
		L223.9,533.9z M229.4,531.5l-2.3,14.8c-0.5,3.4,1,5.5,4.7,6.1h0.3c3.7,0.6,5.8-1,6.3-4.4l2.3-14.8c0.5-3.4-1-5.5-4.7-6.1h-0.3
		C231.9,526.6,229.9,528.1,229.4,531.5z M228.6,545.9l2.1-13.5c0.5-3.2,1.8-4.3,4.9-3.9c3.1,0.5,4,2,3.5,5.2l-2.1,13.5
		c-0.5,3.2-1.8,4.3-4.9,3.9C229,550.6,228.1,549,228.6,545.9z M255.3,554.7l-3.4-11.5c2.5-0.4,3.8-2,4-4.7l0.3-3.4
		c0.3-3.4-1.3-5.4-5.1-5.7l-5.7-0.5l-2.2,24.9l1.4,0.1l1-10.9l4.3,0.4h0.5l3.4,11.3L255.3,554.7z M249.9,541.9l-4.2-0.4l1-11.3
		l4.2,0.4c3.1,0.3,4.1,1.7,3.9,4.9l-0.2,2.2C254.3,540.9,253,542.1,249.9,541.9z M269.8,530.3l-11-0.4v1.4l4.8,0.2l-0.8,23.6h1.4
		l0.8-23.6l4.8,0.2L269.8,530.3z M272.8,555.2h1.4l-0.2-11.8l6.8-0.1v-1.4L274,542l-0.2-10.4l7.9-0.1v-1.4l-9.4,0.2L272.8,555.2z
		 M284.6,534.9l1.1,14.9c0.2,3.4,2.2,5.1,5.9,4.9h0.3c3.8-0.3,5.4-2.3,5.2-5.7l-1.1-14.9c-0.2-3.4-2.2-5.1-5.9-4.9h-0.3
		C286,529.6,284.3,531.5,284.6,534.9z M287,549.1l-1-13.7c-0.2-3.2,0.8-4.6,3.9-4.9c3.1-0.2,4.4,1,4.6,4.2l1,13.7
		c0.2,3.2-0.8,4.6-3.9,4.9C288.5,553.6,287.3,552.3,287,549.1z M311.8,550.9l-7.6,1l-3.1-23.4l-1.4,0.2l3.2,24.7l9-1.2L311.8,550.9z
		 M317.2,551.3l-4.2-24.6l-1.4,0.2l4.2,24.6L317.2,551.3z M318.5,530.9l3.2,14.6c0.7,3.3,2.9,4.8,6.5,4l0.3-0.1c3.7-0.8,5-3,4.3-6.3
		l-3.2-14.6c-0.7-3.3-2.9-4.8-6.5-4l-0.3,0.1C319.1,525.3,317.7,527.5,318.5,530.9z M322.9,544.6l-2.9-13.4
		c-0.7-3.1,0.1-4.7,3.2-5.4s4.5,0.4,5.1,3.6l2.9,13.4c0.7,3.1-0.2,4.7-3.2,5.4C325,548.8,323.6,547.7,322.9,544.6z M347.1,530.4
		l-7.4,2.2l0.4,1.2l7.4-2.2L347.1,530.4z"/>
</g>
</svg>
