<svg xmlns="http://www.w3.org/2000/svg" viewBox="0 0 242.16 242.16"><defs><style>.cls-1{fill:#fff}.cls-2{fill:#2b3541}.cls-3{fill:#8f9ea4}.cls-4{fill:#e8e7ee}.cls-5{fill:#c4cacf}.cls-6{fill:#111d29}</style></defs><title>logo2</title><g id="Layer_2" data-name="Layer 2"><g id="Layer_3" data-name="Layer 3"><path class="cls-1" d="M121.08 11.67a109.41 109.41 0 1 0 109.41 109.41A109.42 109.42 0 0 0 121.08 11.67zm0 211.53A102.12 102.12 0 1 1 223.2 121.08 102.12 102.12 0 0 1 121.08 223.2z"/><path class="cls-2" d="M102.54 193.83c-.9-.23-1.49 0-1.76 1.09l-1.7 6.7c-.27 1.08.12 1.57 1 1.8s1.49 0 1.76-1.09l1.7-6.7c.3-1.08-.09-1.57-1-1.8zM118.57 36.95l-.92 6.11 2.18-.07-1.26-6.04zM110 195.47l-1.37-.2-.65 4.41 1.37.21c.92.13 1.48-.17 1.64-1.27l.22-1.46c.19-1.11-.21-1.55-1.21-1.69zM95.59 191.84l-1.31-.47-1.56 4.3 1.3.47a1.25 1.25 0 0 0 1.86-.9l.55-1.5c.38-1.05.04-1.58-.84-1.9zM131.43 196.94c-.13-1.1-.68-1.42-1.61-1.31s-1.38.54-1.26 1.65l.8 6.86c.13 1.11.67 1.43 1.6 1.32s1.39-.54 1.26-1.65z"/><path class="cls-2" d="M121.08 19A102.12 102.12 0 1 0 223.2 121.08 102.12 102.12 0 0 0 121.08 19zm63.71 39.83l-11.44 11.4q-.71-.72-1.41-1.41l11.44-11.44zm-73.24 118.25c-33.65 0-33.65-26-33.65-31.59 0-35.9 27.51-43.6 43.28-42.43a18.55 18.55 0 0 1-7.8-14.58c0-32.05 43.39-27.93 43.39-12.71 0 .8-.12.8-.35.8-.68 0-1.83-.45-1.83-.91 0-4.69-5.38-6.18-8.7-6.18-20.26 0-29.65 21.63-14.65 36.63-44.87 0-43 68-13.74 68 12.82 0 21.75-9.16 23.93-11.34.65-.65 2.17-.34 2.17.57 0 .66-9.5 13.86-32.05 13.74zm52.53-124.5l3.45 2.29-.78 1.13-3.45-2.29zm-5.53-9.27l-1.08 9.17 3.9-7.75 1.4.71-5.67 11.24-1.45-.68 1.15-9.46-4 8-1.4-.71 5.6-11.29zm-6.85-3.09l.14.05c1.78.68 2.57 1.84 1.91 3.58l-2.69 7.06c-.65 1.74-2 2.09-3.8 1.41h-.14c-1.78-.68-2.57-1.85-1.91-3.58l2.68-7.07c.67-1.8 2.03-2.13 3.81-1.45zm-10.95 8.43a1.25 1.25 0 0 0 1.7-1l.26-1a1.49 1.49 0 0 0-.59-1.7l-1.33-1.29c-.93-1-1.38-1.63-1.07-2.79l.42-1.53c.47-1.76 1.89-2.18 3.56-1.73 1.67.45 2.68 1.53 2.21 3.29l-.52 1.93-1.6-.44.45-1.65a1.35 1.35 0 1 0-2.61-.7l-.23.83c-.19.73 0 1.06.58 1.65l1.35 1.3c.88.87 1.38 1.64 1.07 2.8l-.4 1.71c-.49 1.82-1.74 2.25-3.59 1.75-1.84-.5-2.72-1.48-2.22-3.32l.56-2.07 1.6.43-.48 1.79a1.24 1.24 0 0 0 .88 1.74zm-9.67-3.16l.36-2.11 1.64.27-.32 1.83a1.25 1.25 0 0 0 1.11 1.65c.87.15 1.42-.21 1.59-1.19l.17-1c.13-.75-.09-1.11-.74-1.64l-1.45-1.16c-1-.86-1.54-1.49-1.33-2.68l.27-1.56c.3-1.79 1.67-2.34 3.38-2 1.71.29 2.82 1.27 2.51 3.06l-.33 2-1.64-.28.29-1.68a1.35 1.35 0 1 0-2.66-.46l-.15.85c-.12.75.1 1.06.74 1.59l1.48 1.11c1 .79 1.53 1.51 1.33 2.7l-.3 1.72c-.31 1.86-1.52 2.4-3.4 2.08-1.91-.33-2.87-1.22-2.55-3.1zM124 34.77l1.69.12 2.55 8.88.61-8.66 1.56.11-.88 12.57-1.62-.11-2.6-9.17-.63 8.94-1.56-.11zm-6.52.08l2.09-.06 2.9 12.52h-1.73l-.6-3-2.7.08-.46 3-1.63.05zm-6 11.6c.94-.1 1.39-.53 1.27-1.64l-1-9.52 1.69-.18 1 9.88c.2 1.89-.9 2.77-2.8 3L111 48l-.16-1.52zm-8.83-9.69l2.3 10.83 3.33-.71.32 1.5-5 1.06-2.6-12.33zm-4.05 1l3.4 12.12-1.63.46-3.43-12.14zm-10.85 3.65l5.3 6.36-.26-8.29 1.57-.59 4.49 11.77-1.53.58-3-8 .24 7-.89.34-4.47-5.38 3.06 8-1.48.57L86.24 42zM84.09 43l.68 1.33L81.56 46l1.81 3.52 2.72-1.4.7 1.34-2.72 1.41 1.93 3.7 3.26-1.69.69 1.33-4.77 2.46-5.78-11.2zm-6 9.55l.78 1.17L75.42 56l-.78-1.17zm-19.29 4.8l11.43 11.47c-.48.46-1 .93-1.42 1.41L57.38 58.79zm-1.41 126l11.43-11.44 1.42 1.41-11.45 11.47zm29.48 10.68l-3.7-1.85.63-1.26 3.7 1.86zm6.71 3.53l-1.37-.5-1.71 4.72-1.59-.58 4.3-11.84 3 1.07c1.8.65 2.6 1.81 2 3.55l-.77 2.12c-.71 1.77-2.07 2.14-3.87 1.49zm9.86 5.47c-.46 1.79-1.77 2.3-3.62 1.83h-.14c-1.85-.47-2.76-1.54-2.31-3.33l1.86-7.33c.46-1.81 1.77-2.3 3.62-1.83h.14c1.85.47 2.77 1.54 2.31 3.33zm9.53-6l-.31 2.09a2.35 2.35 0 0 1-1.81 2.17l1.1 5.64-1.71-.26-1-5.36-1.44-.22-.75 5.11-1.68-.24 1.84-12.47 3.12.46c1.88.33 2.9 1.3 2.67 3.13zm6.84-.75l-2.19-.13-.62 11.14-1.69-.1.63-11.09-2.2-.12.09-1.49 6.07.34zm2.64 4l3-.07v1.51l-3 .07.13 5.54h-1.69l-.3-12.59 5.23-.12v1.49l-3.55.08zm8.77 6.62h-.15c-1.89.22-3.13-.46-3.34-2.3l-.87-7.51c-.22-1.86.83-2.78 2.73-3h.14c1.9-.22 3.14.46 3.35 2.3l.87 7.51c.2 1.88-.85 2.82-2.74 3.04zm5.49-.94l-2.58-12.34 1.66-.34 2.21 10.88 3.33-.7.32 1.5zm6.68-1.52L140 192.33l1.63-.45L145 204zm7.09-2.08h-.14c-1.79.65-3.15.27-3.78-1.47l-2.56-7.02c-.64-1.76.18-2.9 2-3.55h.14c1.79-.64 3.15-.27 3.78 1.47l2.56 7.12c.59 1.69-.22 2.84-2.01 3.49zm4.81-8.33l-.63-1.26 3.7-1.85.63 1.25zm28.1-9.28l-11.44-11.44 1.41-1.41 11.44 11.44z"/><path class="cls-2" d="M147.72 50.9c.88.33 1.48.15 1.88-.89l2.45-6.46c.4-1 .06-1.58-.81-1.91s-1.48-.16-1.88.88L146.91 49a1.26 1.26 0 0 0 .81 1.9zM148.4 192.62c-.38-1.05-1-1.23-1.86-.92a1.27 1.27 0 0 0-.85 1.9l2.34 6.5c.38 1.05 1 1.24 1.86.92s1.23-.84.85-1.89z"/><path class="cls-3" d="M70.23 68.82L58.79 57.38l-1.41 1.41 11.43 11.44c.47-.48.94-.95 1.42-1.41zM171.94 173.35l11.44 11.44 1.41-1.41-11.44-11.44zM68.81 171.94l-11.43 11.44 1.41 1.41 11.44-11.44zM173.35 70.23l11.44-11.44-1.41-1.41-11.44 11.44q.71.69 1.41 1.41z"/><path class="cls-4" d="M141.43 162.77c-2.18 2.18-11.11 11.34-23.93 11.34-29.3 0-31.13-68 13.74-68-15-15-5.61-36.63 14.65-36.63 3.32 0 8.7 1.49 8.7 6.18 0 .46 1.15.91 1.83.91.23 0 .35 0 .35-.8 0-15.22-43.39-19.34-43.39 12.71a18.55 18.55 0 0 0 7.8 14.58c-15.77-1.17-43.28 6.53-43.28 42.43 0 5.59 0 31.59 33.65 31.59 22.55.12 32.05-13.05 32.05-13.74 0-.91-1.52-1.22-2.17-.57z"/><path class="cls-5" transform="rotate(-33.62 76.768 54.311)" d="M74.68 53.61h4.14v1.4h-4.14z"/><path class="cls-5" d="M89.92 54.21l-.69-1.33-3.26 1.69-1.9-3.68 2.72-1.41-.7-1.34-2.72 1.4-1.81-3.52 3.22-1.66-.69-1.33-4.72 2.44 5.78 11.2 4.77-2.46zM92.21 53.19l-3.06-8 4.47 5.39.89-.35-.24-6.99 3.05 8 1.53-.58-4.49-11.78-1.57.6.26 8.29-5.3-6.36-1.51.58 4.49 11.77 1.48-.57z"/><path class="cls-5" transform="rotate(-15.64 99.445 44.037)" d="M98.6 37.74h1.69v12.6H98.6z"/><path class="cls-5" d="M108.57 48.38l-.32-1.5-3.33.71-2.3-10.83-1.65.35 2.62 12.33 4.98-1.06zM111.64 48c1.9-.2 3-1.08 2.8-3l-1-9.88-1.69.18 1 9.52c.12 1.11-.33 1.54-1.27 1.64l-.65.07L111 48zM117.44 44.49l2.7-.08.6 3h1.73l-2.9-12.52-2.09.06-2.13 12.67 1.63-.05zm1.13-7.49l1.26 6-2.18.06zM125.31 38.51l2.6 9.17 1.62.11.88-12.57-1.56-.11-.61 8.66-2.55-8.88-1.69-.12-.89 12.57 1.57.11.63-8.94zM133.6 48.59c1.88.32 3.09-.22 3.4-2.08l.3-1.72c.2-1.19-.37-1.91-1.33-2.7l-1.46-1.16c-.64-.53-.86-.84-.74-1.59l.15-.85a1.35 1.35 0 1 1 2.66.46l-.29 1.68 1.64.28.33-2c.31-1.79-.8-2.77-2.51-3.06-1.71-.29-3.08.26-3.38 2l-.27 1.56c-.21 1.19.31 1.82 1.33 2.68l1.45 1.16c.65.53.87.89.74 1.64l-.17 1c-.17 1-.72 1.34-1.59 1.19a1.25 1.25 0 0 1-1.11-1.65l.32-1.83-1.64-.27-.36 2.11c-.31 1.93.65 2.82 2.53 3.15zM140.29 45.11l-1.6-.43-.56 2.07c-.5 1.84.38 2.82 2.22 3.32 1.85.5 3.1.07 3.59-1.75l.46-1.69c.31-1.16-.19-1.93-1.07-2.8L142 42.54c-.58-.59-.77-.92-.58-1.65l.23-.83a1.35 1.35 0 1 1 2.61.7l-.45 1.65 1.6.44.52-1.93c.47-1.76-.54-2.84-2.21-3.29-1.67-.45-3.09 0-3.56 1.73l-.42 1.53c-.31 1.16.14 1.84 1.07 2.79l1.31 1.32a1.49 1.49 0 0 1 .59 1.7l-.26 1a1.37 1.37 0 1 1-2.64-.72zM147.12 52.27h.14c1.78.68 3.15.33 3.8-1.41l2.69-7.06c.66-1.74-.13-2.9-1.91-3.58l-.14-.05c-1.78-.68-3.14-.35-3.81 1.4l-2.68 7.07c-.66 1.78.13 2.95 1.91 3.63zm-.21-3.27l2.45-6.47c.4-1 1-1.21 1.88-.88s1.21.86.81 1.91L149.6 50c-.4 1-1 1.22-1.88.89a1.26 1.26 0 0 1-.81-1.89zM152.76 54.49l4.04-8-1.15 9.46 1.45.73 5.67-11.24-1.4-.71-3.9 7.75 1.07-9.18-1.51-.76-5.67 11.25 1.4.7z"/><path class="cls-5" transform="rotate(-56.37 165.426 54.308)" d="M164.71 52.24h1.4v4.14h-1.4z"/><path class="cls-5" transform="rotate(-63.34 85.338 192.515)" d="M84.62 190.44h1.4v4.14h-1.4z"/><path class="cls-5" d="M98.13 194c.63-1.74-.17-2.9-2-3.55l-3-1.07-4.3 11.84 1.59.58 1.71-4.72 1.37.5c1.8.65 3.16.28 3.79-1.46zm-1.7-.27l-.55 1.5a1.25 1.25 0 0 1-1.86.9l-1.3-.47 1.56-4.3 1.31.47c.88.33 1.22.86.84 1.91zM103 192.4h-.14c-1.85-.47-3.16 0-3.62 1.83l-1.86 7.33c-.45 1.79.46 2.86 2.31 3.33h.14c1.85.47 3.16 0 3.62-1.83l1.86-7.33c.44-1.79-.48-2.86-2.31-3.33zm.59 3.23l-1.7 6.7c-.27 1.08-.85 1.32-1.76 1.09s-1.3-.72-1-1.8l1.7-6.7c.27-1.08.86-1.32 1.76-1.09s1.25.72.98 1.8zM110.32 194l-3.12-.46-1.84 12.46 1.68.24.75-5.11 1.44.22 1 5.36 1.71.26-1.1-5.64a2.35 2.35 0 0 0 1.81-2.17l.31-2.09c.27-1.82-.75-2.79-2.64-3.07zm.92 3.16l-.22 1.46c-.16 1.1-.72 1.4-1.64 1.27l-1.37-.21.65-4.41 1.37.2c.97.14 1.37.58 1.21 1.69zM113.72 195.98l2.2.12-.63 11.09 1.69.1.63-11.09 2.19.13.08-1.5-6.07-.34-.09 1.49zM125.85 194.7l-5.23.12.3 12.59 1.69-.04-.13-5.54 2.98-.07-.03-1.51-2.99.07-.1-4.05 3.55-.08-.04-1.49zM133.07 196.43c-.21-1.84-1.45-2.52-3.35-2.3h-.14c-1.9.22-3 1.14-2.73 3l.87 7.51c.21 1.84 1.45 2.52 3.34 2.3h.15c1.89-.22 2.94-1.16 2.73-3zm-2.11 9c-.93.11-1.47-.21-1.6-1.32l-.8-6.86c-.12-1.11.33-1.55 1.26-1.65s1.48.21 1.61 1.31l.79 6.87c.13 1.14-.33 1.57-1.22 1.68zM138.04 204.16l-2.26-10.84-1.66.34L136.7 206l4.99-1.04-.32-1.5-3.33.7z"/><path class="cls-5" transform="rotate(-15.48 142.561 198.206)" d="M141.66 191.88h1.69v12.6h-1.69z"/><path class="cls-5" d="M149.88 191.74c-.63-1.74-2-2.11-3.78-1.47h-.14c-1.79.65-2.61 1.79-2 3.55l2.56 7.11c.63 1.74 2 2.12 3.78 1.47h.14c1.79-.65 2.6-1.8 2-3.54zm0 9.28c-.88.32-1.48.13-1.86-.92l-2.34-6.5a1.27 1.27 0 0 1 .85-1.9c.88-.31 1.48-.13 1.86.92l2.34 6.51c.39 1.05.04 1.57-.84 1.87z"/><path class="cls-5" transform="rotate(-26.62 156.816 192.498)" d="M154.74 191.81h4.14v1.4h-4.14z"/><path class="cls-6" d="M121.08 0a121.08 121.08 0 1 0 121.08 121.08A121.08 121.08 0 0 0 121.08 0zm0 230.49a109.41 109.41 0 1 1 109.41-109.41 109.41 109.41 0 0 1-109.41 109.41z"/></g></g></svg>